<svg width="167" height="40" viewBox="0 0 167 40" fill="none" xmlns="http://www.w3.org/2000/svg">
<path d="M140.589 1.30622C137.496 2.64376 132.772 3.04085 126.962 2.45567C121.466 1.91229 117.829 2.05859 113.044 3.06175C108.864 3.91861 103.346 6.36381 99.6681 8.95531C96.9303 10.8989 92.3952 15.4549 90.4097 18.2763C88.6542 20.7633 85.8955 25.8836 87.1286 24.3789C89.3648 21.662 93.3565 18.5689 96.5959 17.0642C103.158 14.0338 113.545 12.6127 127.067 12.8843L133.065 13.0097L134.465 11.4841C136.388 9.41509 138.708 6.48921 139.857 4.73368C140.651 3.45883 142.198 0.616547 142.052 0.679245C142.01 0.700144 141.362 0.971832 140.589 1.30622Z" fill="#E9B334"/>
<path d="M24.9327 1.20171C25.2671 2.10037 27.775 6.02941 29.0917 7.72224C29.8649 8.7254 31.2652 10.3137 32.2057 11.2751L33.8776 13.0306L39.3532 12.8843C52.227 12.5917 62.6557 13.8875 69.1135 16.6253C72.8127 18.1718 75.864 20.2826 78.4346 23.0622C79.3123 24.0027 80.0229 24.6924 80.0229 24.5879C80.0229 24.3371 78.2047 21.0141 77.3478 19.6766C71.3707 10.5018 62.4049 4.54557 51.6628 2.64375C48.8623 2.14217 44.0555 2.03768 40.5444 2.39296C36.7617 2.79005 32.9789 2.83184 30.8054 2.51836C29.447 2.33026 26.5838 1.5361 25.079 0.930023C24.8701 0.846426 24.8283 0.909122 24.9327 1.20171Z" fill="#98A8AF"/>
<path d="M11.3274 12.1947C12.1633 14.3473 16.5731 24.6297 16.6985 24.7551C16.782 24.8596 17.5553 24.7551 18.3913 24.5043C24.9745 22.707 33.1879 21.5993 41.3594 21.4112C53.3765 21.1604 64.2231 22.7906 75.3624 26.5315C77.3478 27.2003 79.0615 27.7019 79.1869 27.6183C79.4795 27.4511 76.9925 24.3998 75.4877 23.104C71.9349 19.9901 68.4447 18.2345 63.408 16.9806C56.3023 15.2042 47.88 14.6399 35.6122 15.1206C25.4134 15.4968 20.3976 15.4759 18.1823 15.0161C15.9879 14.5354 14.1279 13.8039 12.4768 12.7381C11.7872 12.2992 11.2647 12.0484 11.3274 12.1947Z" fill="#C61C23"/>
<path d="M154.842 12.4037C153.985 13.1142 151.623 14.201 150.056 14.6399C147.653 15.3086 144.915 15.5594 141.216 15.434C139.335 15.3713 134.465 15.225 130.39 15.0788C117.474 14.6608 108.864 15.3713 101.445 17.4822C99.1665 18.13 95.0076 20.1572 93.2938 21.453C90.8277 23.313 87.3376 27.1167 87.6511 27.5973C87.7138 27.7227 88.5706 27.5137 89.7201 27.0958C103.576 22.08 119.982 20.2199 134.883 21.9964C139.063 22.4771 145.73 23.7519 149.722 24.8178C150.098 24.9014 150.432 24.2326 152.815 18.5062C154.298 14.9952 155.469 12.0902 155.427 12.0484C155.385 12.0066 155.134 12.1738 154.842 12.4037Z" fill="#F9F7F8"/>
<path d="M39.165 23.3548C28.8617 23.9191 19.0391 25.8836 9.8435 29.2066C7.04301 30.2306 1.56744 32.5923 0.585176 33.2192L0 33.5745L3.05128 36.0197L6.10255 38.444L7.77448 37.7334C15.3818 34.4732 24.5774 32.1116 33.8357 31.0666C37.8275 30.6068 45.9781 30.4396 50.0326 30.7322C60.9837 31.5264 71.7468 34.2433 81.5485 38.6739C82.3426 39.0292 83.1577 39.3218 83.3458 39.3218C83.5548 39.3218 85.164 38.6948 86.9405 37.9424C95.0911 34.4523 103.89 32.1325 113.211 31.0248C117.537 30.5023 128.383 30.5232 132.793 31.0248C141.843 32.0907 150.411 34.2224 157.998 37.3155L160.694 38.444L163.578 36.1451C165.145 34.8912 166.524 33.7626 166.629 33.6581C166.859 33.4491 162.742 31.4428 159.231 30.0635C140.923 22.9159 120.902 21.4112 101.549 25.7373C98.5604 26.4061 93.4192 27.8899 90.4306 28.9558L87.7555 29.8963L86.7733 29.4365C85.9164 29.0394 85.3939 28.9767 83.3667 28.9767C81.2977 28.9767 80.8379 29.0394 80.0437 29.4365L79.1242 29.8963L75.1324 28.5587C67.2953 25.9254 59.9806 24.3789 52.018 23.6474C49.3638 23.4175 41.4639 23.2294 39.165 23.3548Z" fill="#1479B3"/>
</svg>
